<mxfile host="app.diagrams.net" agent="Mozilla/5.0 (Macintosh; Intel Mac OS X 10_15_7) AppleWebKit/537.36 (KHTML, like Gecko) Chrome/135.0.0.0 Safari/537.36" version="26.2.14">
  <diagram id="C5RBs43oDa-KdzZeNtuy" name="Page-1">
    <mxGraphModel dx="2564" dy="1000" grid="1" gridSize="10" guides="1" tooltips="1" connect="1" arrows="1" fold="1" page="1" pageScale="1" pageWidth="827" pageHeight="1169" math="0" shadow="0">
      <root>
        <mxCell id="WIyWlLk6GJQsqaUBKTNV-0" />
        <mxCell id="WIyWlLk6GJQsqaUBKTNV-1" parent="WIyWlLk6GJQsqaUBKTNV-0" />
        <mxCell id="BNeq4px3UG7PVX7FRzOn-12" value="&lt;&lt;abstract&gt;&gt;&#xa;Product" style="swimlane;fontStyle=2;align=center;verticalAlign=top;childLayout=stackLayout;horizontal=1;startSize=40;horizontalStack=0;resizeParent=1;resizeLast=0;collapsible=1;marginBottom=0;rounded=0;shadow=0;strokeWidth=1;" parent="WIyWlLk6GJQsqaUBKTNV-1" vertex="1">
          <mxGeometry x="-165" y="320" width="210" height="246" as="geometry">
            <mxRectangle x="230" y="140" width="160" height="26" as="alternateBounds" />
          </mxGeometry>
        </mxCell>
        <mxCell id="nLLsvmatSyjKDxN5_Jng-0" value="+ id: int  " style="text;align=left;verticalAlign=top;spacingLeft=4;spacingRight=4;overflow=hidden;rotatable=0;points=[[0,0.5],[1,0.5]];portConstraint=eastwest;" vertex="1" parent="BNeq4px3UG7PVX7FRzOn-12">
          <mxGeometry y="40" width="210" height="24" as="geometry" />
        </mxCell>
        <mxCell id="BNeq4px3UG7PVX7FRzOn-13" value="+ name : string" style="text;align=left;verticalAlign=top;spacingLeft=4;spacingRight=4;overflow=hidden;rotatable=0;points=[[0,0.5],[1,0.5]];portConstraint=eastwest;" parent="BNeq4px3UG7PVX7FRzOn-12" vertex="1">
          <mxGeometry y="64" width="210" height="26" as="geometry" />
        </mxCell>
        <mxCell id="BNeq4px3UG7PVX7FRzOn-14" value="+ Image : List&lt;String&gt;[1..5]" style="text;align=left;verticalAlign=top;spacingLeft=4;spacingRight=4;overflow=hidden;rotatable=0;points=[[0,0.5],[1,0.5]];portConstraint=eastwest;rounded=0;shadow=0;html=0;" parent="BNeq4px3UG7PVX7FRzOn-12" vertex="1">
          <mxGeometry y="90" width="210" height="26" as="geometry" />
        </mxCell>
        <mxCell id="BNeq4px3UG7PVX7FRzOn-15" value="+ mainFeatures : string" style="text;align=left;verticalAlign=top;spacingLeft=4;spacingRight=4;overflow=hidden;rotatable=0;points=[[0,0.5],[1,0.5]];portConstraint=eastwest;rounded=0;shadow=0;html=0;" parent="BNeq4px3UG7PVX7FRzOn-12" vertex="1">
          <mxGeometry y="116" width="210" height="26" as="geometry" />
        </mxCell>
        <mxCell id="BNeq4px3UG7PVX7FRzOn-16" value="+ imageFeatures : List&lt;Sring&gt;[1..*]" style="text;align=left;verticalAlign=top;spacingLeft=4;spacingRight=4;overflow=hidden;rotatable=0;points=[[0,0.5],[1,0.5]];portConstraint=eastwest;rounded=0;shadow=0;html=0;" parent="BNeq4px3UG7PVX7FRzOn-12" vertex="1">
          <mxGeometry y="142" width="210" height="26" as="geometry" />
        </mxCell>
        <mxCell id="BNeq4px3UG7PVX7FRzOn-17" value="+ datasheet : File" style="text;align=left;verticalAlign=top;spacingLeft=4;spacingRight=4;overflow=hidden;rotatable=0;points=[[0,0.5],[1,0.5]];portConstraint=eastwest;rounded=0;shadow=0;html=0;" parent="BNeq4px3UG7PVX7FRzOn-12" vertex="1">
          <mxGeometry y="168" width="210" height="26" as="geometry" />
        </mxCell>
        <mxCell id="BNeq4px3UG7PVX7FRzOn-18" value="+ drawing : File" style="text;align=left;verticalAlign=top;spacingLeft=4;spacingRight=4;overflow=hidden;rotatable=0;points=[[0,0.5],[1,0.5]];portConstraint=eastwest;rounded=0;shadow=0;html=0;" parent="BNeq4px3UG7PVX7FRzOn-12" vertex="1">
          <mxGeometry y="194" width="210" height="26" as="geometry" />
        </mxCell>
        <mxCell id="BNeq4px3UG7PVX7FRzOn-19" value="+ manual : File" style="text;align=left;verticalAlign=top;spacingLeft=4;spacingRight=4;overflow=hidden;rotatable=0;points=[[0,0.5],[1,0.5]];portConstraint=eastwest;rounded=0;shadow=0;html=0;" parent="BNeq4px3UG7PVX7FRzOn-12" vertex="1">
          <mxGeometry y="220" width="210" height="26" as="geometry" />
        </mxCell>
        <mxCell id="BNeq4px3UG7PVX7FRzOn-20" value="Lens" style="swimlane;fontStyle=0;align=center;verticalAlign=top;childLayout=stackLayout;horizontal=1;startSize=26;horizontalStack=0;resizeParent=1;resizeLast=0;collapsible=1;marginBottom=0;rounded=0;shadow=0;strokeWidth=1;" parent="WIyWlLk6GJQsqaUBKTNV-1" vertex="1">
          <mxGeometry x="245" y="660" width="195" height="240" as="geometry">
            <mxRectangle x="130" y="380" width="160" height="26" as="alternateBounds" />
          </mxGeometry>
        </mxCell>
        <mxCell id="nLLsvmatSyjKDxN5_Jng-7" value="+ id: int  " style="text;align=left;verticalAlign=top;spacingLeft=4;spacingRight=4;overflow=hidden;rotatable=0;points=[[0,0.5],[1,0.5]];portConstraint=eastwest;" vertex="1" parent="BNeq4px3UG7PVX7FRzOn-20">
          <mxGeometry y="26" width="195" height="24" as="geometry" />
        </mxCell>
        <mxCell id="BNeq4px3UG7PVX7FRzOn-21" value="+ maker: string  &#xa;" style="text;align=left;verticalAlign=top;spacingLeft=4;spacingRight=4;overflow=hidden;rotatable=0;points=[[0,0.5],[1,0.5]];portConstraint=eastwest;" parent="BNeq4px3UG7PVX7FRzOn-20" vertex="1">
          <mxGeometry y="50" width="195" height="26" as="geometry" />
        </mxCell>
        <mxCell id="BNeq4px3UG7PVX7FRzOn-22" value="+ focalLength: int (0~200mm)  &#xa;" style="text;align=left;verticalAlign=top;spacingLeft=4;spacingRight=4;overflow=hidden;rotatable=0;points=[[0,0.5],[1,0.5]];portConstraint=eastwest;" parent="BNeq4px3UG7PVX7FRzOn-20" vertex="1">
          <mxGeometry y="76" width="195" height="26" as="geometry" />
        </mxCell>
        <mxCell id="BNeq4px3UG7PVX7FRzOn-23" value="+ formatSize: int (0~80mm)  " style="text;align=left;verticalAlign=top;spacingLeft=4;spacingRight=4;overflow=hidden;rotatable=0;points=[[0,0.5],[1,0.5]];portConstraint=eastwest;rounded=0;shadow=0;html=0;" parent="BNeq4px3UG7PVX7FRzOn-20" vertex="1">
          <mxGeometry y="102" width="195" height="26" as="geometry" />
        </mxCell>
        <mxCell id="BNeq4px3UG7PVX7FRzOn-24" value="+ mount: MountType (enum)  " style="text;align=left;verticalAlign=top;spacingLeft=4;spacingRight=4;overflow=hidden;rotatable=0;points=[[0,0.5],[1,0.5]];portConstraint=eastwest;rounded=0;shadow=0;html=0;" parent="BNeq4px3UG7PVX7FRzOn-20" vertex="1">
          <mxGeometry y="128" width="195" height="26" as="geometry" />
        </mxCell>
        <mxCell id="BNeq4px3UG7PVX7FRzOn-25" value="+ resolution: string  " style="text;align=left;verticalAlign=top;spacingLeft=4;spacingRight=4;overflow=hidden;rotatable=0;points=[[0,0.5],[1,0.5]];portConstraint=eastwest;rounded=0;shadow=0;html=0;" parent="BNeq4px3UG7PVX7FRzOn-20" vertex="1">
          <mxGeometry y="154" width="195" height="26" as="geometry" />
        </mxCell>
        <mxCell id="BNeq4px3UG7PVX7FRzOn-26" value="+ NA: string  " style="text;align=left;verticalAlign=top;spacingLeft=4;spacingRight=4;overflow=hidden;rotatable=0;points=[[0,0.5],[1,0.5]];portConstraint=eastwest;rounded=0;shadow=0;html=0;" parent="BNeq4px3UG7PVX7FRzOn-20" vertex="1">
          <mxGeometry y="180" width="195" height="26" as="geometry" />
        </mxCell>
        <mxCell id="BNeq4px3UG7PVX7FRzOn-27" value="+ fNumber: string" style="text;align=left;verticalAlign=top;spacingLeft=4;spacingRight=4;overflow=hidden;rotatable=0;points=[[0,0.5],[1,0.5]];portConstraint=eastwest;rounded=0;shadow=0;html=0;" parent="BNeq4px3UG7PVX7FRzOn-20" vertex="1">
          <mxGeometry y="206" width="195" height="26" as="geometry" />
        </mxCell>
        <mxCell id="BNeq4px3UG7PVX7FRzOn-28" value="" style="line;html=1;strokeWidth=1;align=left;verticalAlign=middle;spacingTop=-1;spacingLeft=3;spacingRight=3;rotatable=0;labelPosition=right;points=[];portConstraint=eastwest;" parent="BNeq4px3UG7PVX7FRzOn-20" vertex="1">
          <mxGeometry y="232" width="195" height="8" as="geometry" />
        </mxCell>
        <mxCell id="BNeq4px3UG7PVX7FRzOn-32" value="Admin" style="swimlane;fontStyle=0;align=center;verticalAlign=top;childLayout=stackLayout;horizontal=1;startSize=26;horizontalStack=0;resizeParent=1;resizeLast=0;collapsible=1;marginBottom=0;rounded=0;shadow=0;strokeWidth=1;" parent="WIyWlLk6GJQsqaUBKTNV-1" vertex="1">
          <mxGeometry x="-760" y="200" width="340" height="236" as="geometry">
            <mxRectangle x="550" y="140" width="160" height="26" as="alternateBounds" />
          </mxGeometry>
        </mxCell>
        <mxCell id="nLLsvmatSyjKDxN5_Jng-1" value="+ id: int  " style="text;align=left;verticalAlign=top;spacingLeft=4;spacingRight=4;overflow=hidden;rotatable=0;points=[[0,0.5],[1,0.5]];portConstraint=eastwest;" vertex="1" parent="BNeq4px3UG7PVX7FRzOn-32">
          <mxGeometry y="26" width="340" height="24" as="geometry" />
        </mxCell>
        <mxCell id="nLLsvmatSyjKDxN5_Jng-2" value="+ loginId: string  " style="text;align=left;verticalAlign=top;spacingLeft=4;spacingRight=4;overflow=hidden;rotatable=0;points=[[0,0.5],[1,0.5]];portConstraint=eastwest;" vertex="1" parent="BNeq4px3UG7PVX7FRzOn-32">
          <mxGeometry y="50" width="340" height="24" as="geometry" />
        </mxCell>
        <mxCell id="nLLsvmatSyjKDxN5_Jng-3" value="+ password: string  " style="text;align=left;verticalAlign=top;spacingLeft=4;spacingRight=4;overflow=hidden;rotatable=0;points=[[0,0.5],[1,0.5]];portConstraint=eastwest;" vertex="1" parent="BNeq4px3UG7PVX7FRzOn-32">
          <mxGeometry y="74" width="340" height="24" as="geometry" />
        </mxCell>
        <mxCell id="BNeq4px3UG7PVX7FRzOn-33" value="" style="line;html=1;strokeWidth=1;align=left;verticalAlign=middle;spacingTop=-1;spacingLeft=3;spacingRight=3;rotatable=0;labelPosition=right;points=[];portConstraint=eastwest;" parent="BNeq4px3UG7PVX7FRzOn-32" vertex="1">
          <mxGeometry y="98" width="340" height="8" as="geometry" />
        </mxCell>
        <mxCell id="BNeq4px3UG7PVX7FRzOn-34" value="+ createProduct()  &#xa;" style="text;align=left;verticalAlign=top;spacingLeft=4;spacingRight=4;overflow=hidden;rotatable=0;points=[[0,0.5],[1,0.5]];portConstraint=eastwest;fontColor=default;" parent="BNeq4px3UG7PVX7FRzOn-32" vertex="1">
          <mxGeometry y="106" width="340" height="26" as="geometry" />
        </mxCell>
        <mxCell id="BNeq4px3UG7PVX7FRzOn-35" value="+ updateProduct() " style="text;align=left;verticalAlign=top;spacingLeft=4;spacingRight=4;overflow=hidden;rotatable=0;points=[[0,0.5],[1,0.5]];portConstraint=eastwest;fontColor=default;" parent="BNeq4px3UG7PVX7FRzOn-32" vertex="1">
          <mxGeometry y="132" width="340" height="26" as="geometry" />
        </mxCell>
        <mxCell id="BNeq4px3UG7PVX7FRzOn-36" value="+ deleteProduct()" style="text;align=left;verticalAlign=top;spacingLeft=4;spacingRight=4;overflow=hidden;rotatable=0;points=[[0,0.5],[1,0.5]];portConstraint=eastwest;fontColor=default;" parent="BNeq4px3UG7PVX7FRzOn-32" vertex="1">
          <mxGeometry y="158" width="340" height="26" as="geometry" />
        </mxCell>
        <mxCell id="BNeq4px3UG7PVX7FRzOn-37" value="+ createProduct()  &#xa;" style="text;align=left;verticalAlign=top;spacingLeft=4;spacingRight=4;overflow=hidden;rotatable=0;points=[[0,0.5],[1,0.5]];portConstraint=eastwest;fontColor=default;" parent="BNeq4px3UG7PVX7FRzOn-32" vertex="1">
          <mxGeometry y="184" width="340" height="26" as="geometry" />
        </mxCell>
        <mxCell id="BNeq4px3UG7PVX7FRzOn-38" value="+ readContact()" style="text;align=left;verticalAlign=top;spacingLeft=4;spacingRight=4;overflow=hidden;rotatable=0;points=[[0,0.5],[1,0.5]];portConstraint=eastwest;" parent="BNeq4px3UG7PVX7FRzOn-32" vertex="1">
          <mxGeometry y="210" width="340" height="26" as="geometry" />
        </mxCell>
        <mxCell id="BNeq4px3UG7PVX7FRzOn-41" value="Visitor" style="swimlane;fontStyle=0;align=center;verticalAlign=top;childLayout=stackLayout;horizontal=1;startSize=30;horizontalStack=0;resizeParent=1;resizeLast=0;collapsible=1;marginBottom=0;rounded=0;shadow=0;strokeWidth=1;" parent="WIyWlLk6GJQsqaUBKTNV-1" vertex="1">
          <mxGeometry x="370" y="200" width="340" height="170" as="geometry">
            <mxRectangle x="550" y="140" width="160" height="26" as="alternateBounds" />
          </mxGeometry>
        </mxCell>
        <mxCell id="BNeq4px3UG7PVX7FRzOn-42" value="" style="line;html=1;strokeWidth=1;align=left;verticalAlign=middle;spacingTop=-1;spacingLeft=3;spacingRight=3;rotatable=0;labelPosition=right;points=[];portConstraint=eastwest;" parent="BNeq4px3UG7PVX7FRzOn-41" vertex="1">
          <mxGeometry y="30" width="340" height="8" as="geometry" />
        </mxCell>
        <mxCell id="BNeq4px3UG7PVX7FRzOn-43" value="+ viewProducts()" style="text;align=left;verticalAlign=top;spacingLeft=4;spacingRight=4;overflow=hidden;rotatable=0;points=[[0,0.5],[1,0.5]];portConstraint=eastwest;fontColor=default;" parent="BNeq4px3UG7PVX7FRzOn-41" vertex="1">
          <mxGeometry y="38" width="340" height="26" as="geometry" />
        </mxCell>
        <mxCell id="nLLsvmatSyjKDxN5_Jng-4" value="+ viewProduct()" style="text;align=left;verticalAlign=top;spacingLeft=4;spacingRight=4;overflow=hidden;rotatable=0;points=[[0,0.5],[1,0.5]];portConstraint=eastwest;fontColor=default;" vertex="1" parent="BNeq4px3UG7PVX7FRzOn-41">
          <mxGeometry y="64" width="340" height="26" as="geometry" />
        </mxCell>
        <mxCell id="BNeq4px3UG7PVX7FRzOn-44" value="+ submitContact()&#xa;" style="text;align=left;verticalAlign=top;spacingLeft=4;spacingRight=4;overflow=hidden;rotatable=0;points=[[0,0.5],[1,0.5]];portConstraint=eastwest;fontColor=default;" parent="BNeq4px3UG7PVX7FRzOn-41" vertex="1">
          <mxGeometry y="90" width="340" height="26" as="geometry" />
        </mxCell>
        <mxCell id="BNeq4px3UG7PVX7FRzOn-45" value="&lt;&lt;abstract&gt;&gt;&#xa;Camera" style="swimlane;fontStyle=2;align=center;verticalAlign=top;childLayout=stackLayout;horizontal=1;startSize=40;horizontalStack=0;resizeParent=1;resizeLast=0;collapsible=1;marginBottom=0;rounded=0;shadow=0;strokeWidth=1;" parent="WIyWlLk6GJQsqaUBKTNV-1" vertex="1">
          <mxGeometry x="-430" y="660" width="210" height="268" as="geometry">
            <mxRectangle x="230" y="140" width="160" height="26" as="alternateBounds" />
          </mxGeometry>
        </mxCell>
        <mxCell id="nLLsvmatSyjKDxN5_Jng-5" value="+ id: int  " style="text;align=left;verticalAlign=top;spacingLeft=4;spacingRight=4;overflow=hidden;rotatable=0;points=[[0,0.5],[1,0.5]];portConstraint=eastwest;" vertex="1" parent="BNeq4px3UG7PVX7FRzOn-45">
          <mxGeometry y="40" width="210" height="24" as="geometry" />
        </mxCell>
        <mxCell id="BNeq4px3UG7PVX7FRzOn-46" value="+ maker: CameraMakerType (enum)  &#xa;" style="text;align=left;verticalAlign=top;spacingLeft=4;spacingRight=4;overflow=hidden;rotatable=0;points=[[0,0.5],[1,0.5]];portConstraint=eastwest;" parent="BNeq4px3UG7PVX7FRzOn-45" vertex="1">
          <mxGeometry y="64" width="210" height="26" as="geometry" />
        </mxCell>
        <mxCell id="BNeq4px3UG7PVX7FRzOn-47" value="+ interface: InterfaceType (enum)&#xa;" style="text;align=left;verticalAlign=top;spacingLeft=4;spacingRight=4;overflow=hidden;rotatable=0;points=[[0,0.5],[1,0.5]];portConstraint=eastwest;" parent="BNeq4px3UG7PVX7FRzOn-45" vertex="1">
          <mxGeometry y="90" width="210" height="22" as="geometry" />
        </mxCell>
        <mxCell id="BNeq4px3UG7PVX7FRzOn-48" value="+ pixelSize: string  &#xa;" style="text;align=left;verticalAlign=top;spacingLeft=4;spacingRight=4;overflow=hidden;rotatable=0;points=[[0,0.5],[1,0.5]];portConstraint=eastwest;" parent="BNeq4px3UG7PVX7FRzOn-45" vertex="1">
          <mxGeometry y="112" width="210" height="26" as="geometry" />
        </mxCell>
        <mxCell id="BNeq4px3UG7PVX7FRzOn-49" value="+ pixelSize: string  &#xa;" style="text;align=left;verticalAlign=top;spacingLeft=4;spacingRight=4;overflow=hidden;rotatable=0;points=[[0,0.5],[1,0.5]];portConstraint=eastwest;" parent="BNeq4px3UG7PVX7FRzOn-45" vertex="1">
          <mxGeometry y="138" width="210" height="26" as="geometry" />
        </mxCell>
        <mxCell id="BNeq4px3UG7PVX7FRzOn-50" value="+ formatSize: string  &#xa;" style="text;align=left;verticalAlign=top;spacingLeft=4;spacingRight=4;overflow=hidden;rotatable=0;points=[[0,0.5],[1,0.5]];portConstraint=eastwest;rounded=0;shadow=0;html=0;" parent="BNeq4px3UG7PVX7FRzOn-45" vertex="1">
          <mxGeometry y="164" width="210" height="26" as="geometry" />
        </mxCell>
        <mxCell id="BNeq4px3UG7PVX7FRzOn-51" value="+ mount: string  &#xa;" style="text;align=left;verticalAlign=top;spacingLeft=4;spacingRight=4;overflow=hidden;rotatable=0;points=[[0,0.5],[1,0.5]];portConstraint=eastwest;rounded=0;shadow=0;html=0;" parent="BNeq4px3UG7PVX7FRzOn-45" vertex="1">
          <mxGeometry y="190" width="210" height="26" as="geometry" />
        </mxCell>
        <mxCell id="BNeq4px3UG7PVX7FRzOn-52" value="+ sensor: string  &#xa;" style="text;align=left;verticalAlign=top;spacingLeft=4;spacingRight=4;overflow=hidden;rotatable=0;points=[[0,0.5],[1,0.5]];portConstraint=eastwest;rounded=0;shadow=0;html=0;" parent="BNeq4px3UG7PVX7FRzOn-45" vertex="1">
          <mxGeometry y="216" width="210" height="26" as="geometry" />
        </mxCell>
        <mxCell id="BNeq4px3UG7PVX7FRzOn-53" value="+ color: boolean" style="text;align=left;verticalAlign=top;spacingLeft=4;spacingRight=4;overflow=hidden;rotatable=0;points=[[0,0.5],[1,0.5]];portConstraint=eastwest;rounded=0;shadow=0;html=0;" parent="BNeq4px3UG7PVX7FRzOn-45" vertex="1">
          <mxGeometry y="242" width="210" height="26" as="geometry" />
        </mxCell>
        <mxCell id="BNeq4px3UG7PVX7FRzOn-54" value="Line Scan Camera" style="swimlane;fontStyle=0;align=center;verticalAlign=top;childLayout=stackLayout;horizontal=1;startSize=26;horizontalStack=0;resizeParent=1;resizeLast=0;collapsible=1;marginBottom=0;rounded=0;shadow=0;strokeWidth=1;" parent="WIyWlLk6GJQsqaUBKTNV-1" vertex="1">
          <mxGeometry x="-470" y="990" width="190" height="90" as="geometry">
            <mxRectangle x="130" y="380" width="160" height="26" as="alternateBounds" />
          </mxGeometry>
        </mxCell>
        <mxCell id="BNeq4px3UG7PVX7FRzOn-55" value="+ resolution: int (0~18k)" style="text;align=left;verticalAlign=top;spacingLeft=4;spacingRight=4;overflow=hidden;rotatable=0;points=[[0,0.5],[1,0.5]];portConstraint=eastwest;" parent="BNeq4px3UG7PVX7FRzOn-54" vertex="1">
          <mxGeometry y="26" width="190" height="26" as="geometry" />
        </mxCell>
        <mxCell id="BNeq4px3UG7PVX7FRzOn-56" value="+ speed : int (0~500kHz)" style="text;align=left;verticalAlign=top;spacingLeft=4;spacingRight=4;overflow=hidden;rotatable=0;points=[[0,0.5],[1,0.5]];portConstraint=eastwest;rounded=0;shadow=0;html=0;" parent="BNeq4px3UG7PVX7FRzOn-54" vertex="1">
          <mxGeometry y="52" width="190" height="26" as="geometry" />
        </mxCell>
        <mxCell id="BNeq4px3UG7PVX7FRzOn-57" value="" style="line;html=1;strokeWidth=1;align=left;verticalAlign=middle;spacingTop=-1;spacingLeft=3;spacingRight=3;rotatable=0;labelPosition=right;points=[];portConstraint=eastwest;" parent="BNeq4px3UG7PVX7FRzOn-54" vertex="1">
          <mxGeometry y="78" width="190" height="8" as="geometry" />
        </mxCell>
        <mxCell id="BNeq4px3UG7PVX7FRzOn-58" value="Area Camera" style="swimlane;fontStyle=0;align=center;verticalAlign=top;childLayout=stackLayout;horizontal=1;startSize=26;horizontalStack=0;resizeParent=1;resizeLast=0;collapsible=1;marginBottom=0;rounded=0;shadow=0;strokeWidth=1;" parent="WIyWlLk6GJQsqaUBKTNV-1" vertex="1">
          <mxGeometry x="-700" y="990" width="180" height="90" as="geometry">
            <mxRectangle x="130" y="380" width="160" height="26" as="alternateBounds" />
          </mxGeometry>
        </mxCell>
        <mxCell id="BNeq4px3UG7PVX7FRzOn-59" value="+ resolution: int (0~250MP)" style="text;align=left;verticalAlign=top;spacingLeft=4;spacingRight=4;overflow=hidden;rotatable=0;points=[[0,0.5],[1,0.5]];portConstraint=eastwest;" parent="BNeq4px3UG7PVX7FRzOn-58" vertex="1">
          <mxGeometry y="26" width="180" height="26" as="geometry" />
        </mxCell>
        <mxCell id="BNeq4px3UG7PVX7FRzOn-60" value="+ speed : int (0~1000fps)" style="text;align=left;verticalAlign=top;spacingLeft=4;spacingRight=4;overflow=hidden;rotatable=0;points=[[0,0.5],[1,0.5]];portConstraint=eastwest;rounded=0;shadow=0;html=0;" parent="BNeq4px3UG7PVX7FRzOn-58" vertex="1">
          <mxGeometry y="52" width="180" height="26" as="geometry" />
        </mxCell>
        <mxCell id="BNeq4px3UG7PVX7FRzOn-61" value="" style="line;html=1;strokeWidth=1;align=left;verticalAlign=middle;spacingTop=-1;spacingLeft=3;spacingRight=3;rotatable=0;labelPosition=right;points=[];portConstraint=eastwest;" parent="BNeq4px3UG7PVX7FRzOn-58" vertex="1">
          <mxGeometry y="78" width="180" height="8" as="geometry" />
        </mxCell>
        <mxCell id="BNeq4px3UG7PVX7FRzOn-63" value="&lt;&lt;enumeration&gt;&gt;&#xa;CameraMakerType" style="swimlane;fontStyle=0;align=center;verticalAlign=top;childLayout=stackLayout;horizontal=1;startSize=40;horizontalStack=0;resizeParent=1;resizeLast=0;collapsible=1;marginBottom=0;rounded=0;shadow=0;strokeWidth=1;" parent="WIyWlLk6GJQsqaUBKTNV-1" vertex="1">
          <mxGeometry x="-710" y="660" width="180" height="204" as="geometry">
            <mxRectangle x="130" y="380" width="160" height="26" as="alternateBounds" />
          </mxGeometry>
        </mxCell>
        <mxCell id="BNeq4px3UG7PVX7FRzOn-64" value="- Crevis" style="text;align=left;verticalAlign=top;spacingLeft=4;spacingRight=4;overflow=hidden;rotatable=0;points=[[0,0.5],[1,0.5]];portConstraint=eastwest;rounded=0;shadow=0;html=0;" parent="BNeq4px3UG7PVX7FRzOn-63" vertex="1">
          <mxGeometry y="40" width="180" height="26" as="geometry" />
        </mxCell>
        <mxCell id="BNeq4px3UG7PVX7FRzOn-65" value="- Viework" style="text;align=left;verticalAlign=top;spacingLeft=4;spacingRight=4;overflow=hidden;rotatable=0;points=[[0,0.5],[1,0.5]];portConstraint=eastwest;rounded=0;shadow=0;html=0;" parent="BNeq4px3UG7PVX7FRzOn-63" vertex="1">
          <mxGeometry y="66" width="180" height="26" as="geometry" />
        </mxCell>
        <mxCell id="BNeq4px3UG7PVX7FRzOn-66" value="- Basler" style="text;align=left;verticalAlign=top;spacingLeft=4;spacingRight=4;overflow=hidden;rotatable=0;points=[[0,0.5],[1,0.5]];portConstraint=eastwest;rounded=0;shadow=0;html=0;" parent="BNeq4px3UG7PVX7FRzOn-63" vertex="1">
          <mxGeometry y="92" width="180" height="26" as="geometry" />
        </mxCell>
        <mxCell id="BNeq4px3UG7PVX7FRzOn-67" value="- Hik" style="text;align=left;verticalAlign=top;spacingLeft=4;spacingRight=4;overflow=hidden;rotatable=0;points=[[0,0.5],[1,0.5]];portConstraint=eastwest;rounded=0;shadow=0;html=0;" parent="BNeq4px3UG7PVX7FRzOn-63" vertex="1">
          <mxGeometry y="118" width="180" height="26" as="geometry" />
        </mxCell>
        <mxCell id="BNeq4px3UG7PVX7FRzOn-68" value="- Huaray" style="text;align=left;verticalAlign=top;spacingLeft=4;spacingRight=4;overflow=hidden;rotatable=0;points=[[0,0.5],[1,0.5]];portConstraint=eastwest;rounded=0;shadow=0;html=0;" parent="BNeq4px3UG7PVX7FRzOn-63" vertex="1">
          <mxGeometry y="144" width="180" height="26" as="geometry" />
        </mxCell>
        <mxCell id="BNeq4px3UG7PVX7FRzOn-69" value="- JAI" style="text;align=left;verticalAlign=top;spacingLeft=4;spacingRight=4;overflow=hidden;rotatable=0;points=[[0,0.5],[1,0.5]];portConstraint=eastwest;rounded=0;shadow=0;html=0;" parent="BNeq4px3UG7PVX7FRzOn-63" vertex="1">
          <mxGeometry y="170" width="180" height="26" as="geometry" />
        </mxCell>
        <mxCell id="BNeq4px3UG7PVX7FRzOn-70" value="" style="line;html=1;strokeWidth=1;align=left;verticalAlign=middle;spacingTop=-1;spacingLeft=3;spacingRight=3;rotatable=0;labelPosition=right;points=[];portConstraint=eastwest;" parent="BNeq4px3UG7PVX7FRzOn-63" vertex="1">
          <mxGeometry y="196" width="180" height="8" as="geometry" />
        </mxCell>
        <mxCell id="BNeq4px3UG7PVX7FRzOn-72" value="&lt;&lt;enumeration&gt;&gt;&#xa;MountType" style="swimlane;fontStyle=0;align=center;verticalAlign=top;childLayout=stackLayout;horizontal=1;startSize=40;horizontalStack=0;resizeParent=1;resizeLast=0;collapsible=1;marginBottom=0;rounded=0;shadow=0;strokeWidth=1;" parent="WIyWlLk6GJQsqaUBKTNV-1" vertex="1">
          <mxGeometry x="260" y="980" width="180" height="160" as="geometry">
            <mxRectangle x="130" y="380" width="160" height="26" as="alternateBounds" />
          </mxGeometry>
        </mxCell>
        <mxCell id="BNeq4px3UG7PVX7FRzOn-73" value="- CS" style="text;align=left;verticalAlign=top;spacingLeft=4;spacingRight=4;overflow=hidden;rotatable=0;points=[[0,0.5],[1,0.5]];portConstraint=eastwest;rounded=0;shadow=0;html=0;" parent="BNeq4px3UG7PVX7FRzOn-72" vertex="1">
          <mxGeometry y="40" width="180" height="26" as="geometry" />
        </mxCell>
        <mxCell id="BNeq4px3UG7PVX7FRzOn-74" value="- C" style="text;align=left;verticalAlign=top;spacingLeft=4;spacingRight=4;overflow=hidden;rotatable=0;points=[[0,0.5],[1,0.5]];portConstraint=eastwest;rounded=0;shadow=0;html=0;" parent="BNeq4px3UG7PVX7FRzOn-72" vertex="1">
          <mxGeometry y="66" width="180" height="26" as="geometry" />
        </mxCell>
        <mxCell id="BNeq4px3UG7PVX7FRzOn-75" value="- F" style="text;align=left;verticalAlign=top;spacingLeft=4;spacingRight=4;overflow=hidden;rotatable=0;points=[[0,0.5],[1,0.5]];portConstraint=eastwest;rounded=0;shadow=0;html=0;" parent="BNeq4px3UG7PVX7FRzOn-72" vertex="1">
          <mxGeometry y="92" width="180" height="26" as="geometry" />
        </mxCell>
        <mxCell id="BNeq4px3UG7PVX7FRzOn-76" value="- M" style="text;align=left;verticalAlign=top;spacingLeft=4;spacingRight=4;overflow=hidden;rotatable=0;points=[[0,0.5],[1,0.5]];portConstraint=eastwest;rounded=0;shadow=0;html=0;" parent="BNeq4px3UG7PVX7FRzOn-72" vertex="1">
          <mxGeometry y="118" width="180" height="26" as="geometry" />
        </mxCell>
        <mxCell id="BNeq4px3UG7PVX7FRzOn-77" value="" style="line;html=1;strokeWidth=1;align=left;verticalAlign=middle;spacingTop=-1;spacingLeft=3;spacingRight=3;rotatable=0;labelPosition=right;points=[];portConstraint=eastwest;" parent="BNeq4px3UG7PVX7FRzOn-72" vertex="1">
          <mxGeometry y="144" width="180" height="8" as="geometry" />
        </mxCell>
        <mxCell id="BNeq4px3UG7PVX7FRzOn-79" value="&lt;&lt;enumeration&gt;&gt;&#xa;InterfaceType" style="swimlane;fontStyle=0;align=center;verticalAlign=top;childLayout=stackLayout;horizontal=1;startSize=40;horizontalStack=0;resizeParent=1;resizeLast=0;collapsible=1;marginBottom=0;rounded=0;shadow=0;strokeWidth=1;" parent="WIyWlLk6GJQsqaUBKTNV-1" vertex="1">
          <mxGeometry x="-220" y="980" width="180" height="160" as="geometry">
            <mxRectangle x="130" y="380" width="160" height="26" as="alternateBounds" />
          </mxGeometry>
        </mxCell>
        <mxCell id="BNeq4px3UG7PVX7FRzOn-80" value="- CoaXpress" style="text;align=left;verticalAlign=top;spacingLeft=4;spacingRight=4;overflow=hidden;rotatable=0;points=[[0,0.5],[1,0.5]];portConstraint=eastwest;rounded=0;shadow=0;html=0;" parent="BNeq4px3UG7PVX7FRzOn-79" vertex="1">
          <mxGeometry y="40" width="180" height="26" as="geometry" />
        </mxCell>
        <mxCell id="BNeq4px3UG7PVX7FRzOn-81" value="- CameraLink" style="text;align=left;verticalAlign=top;spacingLeft=4;spacingRight=4;overflow=hidden;rotatable=0;points=[[0,0.5],[1,0.5]];portConstraint=eastwest;rounded=0;shadow=0;html=0;" parent="BNeq4px3UG7PVX7FRzOn-79" vertex="1">
          <mxGeometry y="66" width="180" height="26" as="geometry" />
        </mxCell>
        <mxCell id="BNeq4px3UG7PVX7FRzOn-82" value="- GigE" style="text;align=left;verticalAlign=top;spacingLeft=4;spacingRight=4;overflow=hidden;rotatable=0;points=[[0,0.5],[1,0.5]];portConstraint=eastwest;rounded=0;shadow=0;html=0;" parent="BNeq4px3UG7PVX7FRzOn-79" vertex="1">
          <mxGeometry y="92" width="180" height="26" as="geometry" />
        </mxCell>
        <mxCell id="BNeq4px3UG7PVX7FRzOn-83" value="- USB" style="text;align=left;verticalAlign=top;spacingLeft=4;spacingRight=4;overflow=hidden;rotatable=0;points=[[0,0.5],[1,0.5]];portConstraint=eastwest;rounded=0;shadow=0;html=0;" parent="BNeq4px3UG7PVX7FRzOn-79" vertex="1">
          <mxGeometry y="118" width="180" height="26" as="geometry" />
        </mxCell>
        <mxCell id="BNeq4px3UG7PVX7FRzOn-84" value="" style="line;html=1;strokeWidth=1;align=left;verticalAlign=middle;spacingTop=-1;spacingLeft=3;spacingRight=3;rotatable=0;labelPosition=right;points=[];portConstraint=eastwest;" parent="BNeq4px3UG7PVX7FRzOn-79" vertex="1">
          <mxGeometry y="144" width="180" height="8" as="geometry" />
        </mxCell>
        <mxCell id="BNeq4px3UG7PVX7FRzOn-86" value="&lt;&lt;enumeration&gt;&gt;&#xa;FrameGrabberMakerType" style="swimlane;fontStyle=0;align=center;verticalAlign=top;childLayout=stackLayout;horizontal=1;startSize=40;horizontalStack=0;resizeParent=1;resizeLast=0;collapsible=1;marginBottom=0;rounded=0;shadow=0;strokeWidth=1;" parent="WIyWlLk6GJQsqaUBKTNV-1" vertex="1">
          <mxGeometry x="20" y="980" width="180" height="160" as="geometry">
            <mxRectangle x="130" y="380" width="160" height="26" as="alternateBounds" />
          </mxGeometry>
        </mxCell>
        <mxCell id="BNeq4px3UG7PVX7FRzOn-87" value="- Matrox" style="text;align=left;verticalAlign=top;spacingLeft=4;spacingRight=4;overflow=hidden;rotatable=0;points=[[0,0.5],[1,0.5]];portConstraint=eastwest;rounded=0;shadow=0;html=0;" parent="BNeq4px3UG7PVX7FRzOn-86" vertex="1">
          <mxGeometry y="40" width="180" height="26" as="geometry" />
        </mxCell>
        <mxCell id="BNeq4px3UG7PVX7FRzOn-88" value="- Euresys" style="text;align=left;verticalAlign=top;spacingLeft=4;spacingRight=4;overflow=hidden;rotatable=0;points=[[0,0.5],[1,0.5]];portConstraint=eastwest;rounded=0;shadow=0;html=0;" parent="BNeq4px3UG7PVX7FRzOn-86" vertex="1">
          <mxGeometry y="66" width="180" height="26" as="geometry" />
        </mxCell>
        <mxCell id="BNeq4px3UG7PVX7FRzOn-89" value="- Basler" style="text;align=left;verticalAlign=top;spacingLeft=4;spacingRight=4;overflow=hidden;rotatable=0;points=[[0,0.5],[1,0.5]];portConstraint=eastwest;rounded=0;shadow=0;html=0;" parent="BNeq4px3UG7PVX7FRzOn-86" vertex="1">
          <mxGeometry y="92" width="180" height="26" as="geometry" />
        </mxCell>
        <mxCell id="BNeq4px3UG7PVX7FRzOn-90" value="- AD Link" style="text;align=left;verticalAlign=top;spacingLeft=4;spacingRight=4;overflow=hidden;rotatable=0;points=[[0,0.5],[1,0.5]];portConstraint=eastwest;rounded=0;shadow=0;html=0;" parent="BNeq4px3UG7PVX7FRzOn-86" vertex="1">
          <mxGeometry y="118" width="180" height="26" as="geometry" />
        </mxCell>
        <mxCell id="BNeq4px3UG7PVX7FRzOn-91" value="" style="line;html=1;strokeWidth=1;align=left;verticalAlign=middle;spacingTop=-1;spacingLeft=3;spacingRight=3;rotatable=0;labelPosition=right;points=[];portConstraint=eastwest;" parent="BNeq4px3UG7PVX7FRzOn-86" vertex="1">
          <mxGeometry y="144" width="180" height="8" as="geometry" />
        </mxCell>
        <mxCell id="BNeq4px3UG7PVX7FRzOn-92" value="FrameGrabber" style="swimlane;fontStyle=0;align=center;verticalAlign=top;childLayout=stackLayout;horizontal=1;startSize=26;horizontalStack=0;resizeParent=1;resizeLast=0;collapsible=1;marginBottom=0;rounded=0;shadow=0;strokeWidth=1;" parent="WIyWlLk6GJQsqaUBKTNV-1" vertex="1">
          <mxGeometry x="-110" y="660" width="260" height="162" as="geometry">
            <mxRectangle x="130" y="380" width="160" height="26" as="alternateBounds" />
          </mxGeometry>
        </mxCell>
        <mxCell id="nLLsvmatSyjKDxN5_Jng-6" value="+ id: int  " style="text;align=left;verticalAlign=top;spacingLeft=4;spacingRight=4;overflow=hidden;rotatable=0;points=[[0,0.5],[1,0.5]];portConstraint=eastwest;" vertex="1" parent="BNeq4px3UG7PVX7FRzOn-92">
          <mxGeometry y="26" width="260" height="24" as="geometry" />
        </mxCell>
        <mxCell id="BNeq4px3UG7PVX7FRzOn-93" value="+ maker: FrameGrabberMakerType (enum)  &#xa;" style="text;align=left;verticalAlign=top;spacingLeft=4;spacingRight=4;overflow=hidden;rotatable=0;points=[[0,0.5],[1,0.5]];portConstraint=eastwest;" parent="BNeq4px3UG7PVX7FRzOn-92" vertex="1">
          <mxGeometry y="50" width="260" height="26" as="geometry" />
        </mxCell>
        <mxCell id="BNeq4px3UG7PVX7FRzOn-94" value="+ interface: InterfaceType (enum)&#xa;" style="text;align=left;verticalAlign=top;spacingLeft=4;spacingRight=4;overflow=hidden;rotatable=0;points=[[0,0.5],[1,0.5]];portConstraint=eastwest;" parent="BNeq4px3UG7PVX7FRzOn-92" vertex="1">
          <mxGeometry y="76" width="260" height="26" as="geometry" />
        </mxCell>
        <mxCell id="BNeq4px3UG7PVX7FRzOn-95" value="+ Connector: string&#xa;" style="text;align=left;verticalAlign=top;spacingLeft=4;spacingRight=4;overflow=hidden;rotatable=0;points=[[0,0.5],[1,0.5]];portConstraint=eastwest;rounded=0;shadow=0;html=0;" parent="BNeq4px3UG7PVX7FRzOn-92" vertex="1">
          <mxGeometry y="102" width="260" height="26" as="geometry" />
        </mxCell>
        <mxCell id="BNeq4px3UG7PVX7FRzOn-96" value="+ PCSlot: string&#xa;" style="text;align=left;verticalAlign=top;spacingLeft=4;spacingRight=4;overflow=hidden;rotatable=0;points=[[0,0.5],[1,0.5]];portConstraint=eastwest;rounded=0;shadow=0;html=0;" parent="BNeq4px3UG7PVX7FRzOn-92" vertex="1">
          <mxGeometry y="128" width="260" height="26" as="geometry" />
        </mxCell>
        <mxCell id="BNeq4px3UG7PVX7FRzOn-100" value="" style="line;html=1;strokeWidth=1;align=left;verticalAlign=middle;spacingTop=-1;spacingLeft=3;spacingRight=3;rotatable=0;labelPosition=right;points=[];portConstraint=eastwest;" parent="BNeq4px3UG7PVX7FRzOn-92" vertex="1">
          <mxGeometry y="154" width="260" height="8" as="geometry" />
        </mxCell>
        <mxCell id="BNeq4px3UG7PVX7FRzOn-101" value="Software" style="swimlane;fontStyle=0;align=center;verticalAlign=top;childLayout=stackLayout;horizontal=1;startSize=26;horizontalStack=0;resizeParent=1;resizeLast=0;collapsible=1;marginBottom=0;rounded=0;shadow=0;strokeWidth=1;" parent="WIyWlLk6GJQsqaUBKTNV-1" vertex="1">
          <mxGeometry x="550" y="660" width="220" height="84" as="geometry">
            <mxRectangle x="130" y="380" width="160" height="26" as="alternateBounds" />
          </mxGeometry>
        </mxCell>
        <mxCell id="nLLsvmatSyjKDxN5_Jng-8" value="+ id: int  " style="text;align=left;verticalAlign=top;spacingLeft=4;spacingRight=4;overflow=hidden;rotatable=0;points=[[0,0.5],[1,0.5]];portConstraint=eastwest;" vertex="1" parent="BNeq4px3UG7PVX7FRzOn-101">
          <mxGeometry y="26" width="220" height="24" as="geometry" />
        </mxCell>
        <mxCell id="BNeq4px3UG7PVX7FRzOn-102" value="+ maker: SoftwareMakerType (enum)   &#xa;" style="text;align=left;verticalAlign=top;spacingLeft=4;spacingRight=4;overflow=hidden;rotatable=0;points=[[0,0.5],[1,0.5]];portConstraint=eastwest;" parent="BNeq4px3UG7PVX7FRzOn-101" vertex="1">
          <mxGeometry y="50" width="220" height="26" as="geometry" />
        </mxCell>
        <mxCell id="BNeq4px3UG7PVX7FRzOn-103" value="" style="line;html=1;strokeWidth=1;align=left;verticalAlign=middle;spacingTop=-1;spacingLeft=3;spacingRight=3;rotatable=0;labelPosition=right;points=[];portConstraint=eastwest;" parent="BNeq4px3UG7PVX7FRzOn-101" vertex="1">
          <mxGeometry y="76" width="220" height="8" as="geometry" />
        </mxCell>
        <mxCell id="BNeq4px3UG7PVX7FRzOn-105" value="&lt;&lt;enumeration&gt;&gt;&#xa;SoftwareMakerType" style="swimlane;fontStyle=0;align=center;verticalAlign=top;childLayout=stackLayout;horizontal=1;startSize=40;horizontalStack=0;resizeParent=1;resizeLast=0;collapsible=1;marginBottom=0;rounded=0;shadow=0;strokeWidth=1;" parent="WIyWlLk6GJQsqaUBKTNV-1" vertex="1">
          <mxGeometry x="550" y="798" width="180" height="110" as="geometry">
            <mxRectangle x="130" y="380" width="160" height="26" as="alternateBounds" />
          </mxGeometry>
        </mxCell>
        <mxCell id="BNeq4px3UG7PVX7FRzOn-106" value="- Matrox" style="text;align=left;verticalAlign=top;spacingLeft=4;spacingRight=4;overflow=hidden;rotatable=0;points=[[0,0.5],[1,0.5]];portConstraint=eastwest;rounded=0;shadow=0;html=0;" parent="BNeq4px3UG7PVX7FRzOn-105" vertex="1">
          <mxGeometry y="40" width="180" height="26" as="geometry" />
        </mxCell>
        <mxCell id="BNeq4px3UG7PVX7FRzOn-107" value="- Euresys" style="text;align=left;verticalAlign=top;spacingLeft=4;spacingRight=4;overflow=hidden;rotatable=0;points=[[0,0.5],[1,0.5]];portConstraint=eastwest;rounded=0;shadow=0;html=0;" parent="BNeq4px3UG7PVX7FRzOn-105" vertex="1">
          <mxGeometry y="66" width="180" height="26" as="geometry" />
        </mxCell>
        <mxCell id="BNeq4px3UG7PVX7FRzOn-108" value="" style="line;html=1;strokeWidth=1;align=left;verticalAlign=middle;spacingTop=-1;spacingLeft=3;spacingRight=3;rotatable=0;labelPosition=right;points=[];portConstraint=eastwest;" parent="BNeq4px3UG7PVX7FRzOn-105" vertex="1">
          <mxGeometry y="92" width="180" height="8" as="geometry" />
        </mxCell>
        <mxCell id="BNeq4px3UG7PVX7FRzOn-110" value="ContactMessage" style="swimlane;fontStyle=0;align=center;verticalAlign=top;childLayout=stackLayout;horizontal=1;startSize=26;horizontalStack=0;resizeParent=1;resizeLast=0;collapsible=1;marginBottom=0;rounded=0;shadow=0;strokeWidth=1;" parent="WIyWlLk6GJQsqaUBKTNV-1" vertex="1">
          <mxGeometry x="-160" y="15" width="210" height="264" as="geometry">
            <mxRectangle x="130" y="380" width="160" height="26" as="alternateBounds" />
          </mxGeometry>
        </mxCell>
        <mxCell id="BNeq4px3UG7PVX7FRzOn-111" value="+ id: int  " style="text;align=left;verticalAlign=top;spacingLeft=4;spacingRight=4;overflow=hidden;rotatable=0;points=[[0,0.5],[1,0.5]];portConstraint=eastwest;" parent="BNeq4px3UG7PVX7FRzOn-110" vertex="1">
          <mxGeometry y="26" width="210" height="24" as="geometry" />
        </mxCell>
        <mxCell id="BNeq4px3UG7PVX7FRzOn-112" value="+ name: string  &#xa;" style="text;align=left;verticalAlign=top;spacingLeft=4;spacingRight=4;overflow=hidden;rotatable=0;points=[[0,0.5],[1,0.5]];portConstraint=eastwest;" parent="BNeq4px3UG7PVX7FRzOn-110" vertex="1">
          <mxGeometry y="50" width="210" height="26" as="geometry" />
        </mxCell>
        <mxCell id="BNeq4px3UG7PVX7FRzOn-113" value="+ email: string  " style="text;align=left;verticalAlign=top;spacingLeft=4;spacingRight=4;overflow=hidden;rotatable=0;points=[[0,0.5],[1,0.5]];portConstraint=eastwest;rounded=0;shadow=0;html=0;" parent="BNeq4px3UG7PVX7FRzOn-110" vertex="1">
          <mxGeometry y="76" width="210" height="26" as="geometry" />
        </mxCell>
        <mxCell id="BNeq4px3UG7PVX7FRzOn-114" value="+ title: string" style="text;align=left;verticalAlign=top;spacingLeft=4;spacingRight=4;overflow=hidden;rotatable=0;points=[[0,0.5],[1,0.5]];portConstraint=eastwest;rounded=0;shadow=0;html=0;" parent="BNeq4px3UG7PVX7FRzOn-110" vertex="1">
          <mxGeometry y="102" width="210" height="26" as="geometry" />
        </mxCell>
        <mxCell id="BNeq4px3UG7PVX7FRzOn-115" value="+ message: string  " style="text;align=left;verticalAlign=top;spacingLeft=4;spacingRight=4;overflow=hidden;rotatable=0;points=[[0,0.5],[1,0.5]];portConstraint=eastwest;rounded=0;shadow=0;html=0;" parent="BNeq4px3UG7PVX7FRzOn-110" vertex="1">
          <mxGeometry y="128" width="210" height="26" as="geometry" />
        </mxCell>
        <mxCell id="BNeq4px3UG7PVX7FRzOn-116" value="+ createdAt: Date  " style="text;align=left;verticalAlign=top;spacingLeft=4;spacingRight=4;overflow=hidden;rotatable=0;points=[[0,0.5],[1,0.5]];portConstraint=eastwest;rounded=0;shadow=0;html=0;" parent="BNeq4px3UG7PVX7FRzOn-110" vertex="1">
          <mxGeometry y="154" width="210" height="26" as="geometry" />
        </mxCell>
        <mxCell id="BNeq4px3UG7PVX7FRzOn-117" value="+ isRead: boolean" style="text;align=left;verticalAlign=top;spacingLeft=4;spacingRight=4;overflow=hidden;rotatable=0;points=[[0,0.5],[1,0.5]];portConstraint=eastwest;rounded=0;shadow=0;html=0;" parent="BNeq4px3UG7PVX7FRzOn-110" vertex="1">
          <mxGeometry y="180" width="210" height="26" as="geometry" />
        </mxCell>
        <mxCell id="BNeq4px3UG7PVX7FRzOn-118" value="+ organization: string" style="text;align=left;verticalAlign=top;spacingLeft=4;spacingRight=4;overflow=hidden;rotatable=0;points=[[0,0.5],[1,0.5]];portConstraint=eastwest;rounded=0;shadow=0;html=0;" parent="BNeq4px3UG7PVX7FRzOn-110" vertex="1">
          <mxGeometry y="206" width="210" height="26" as="geometry" />
        </mxCell>
        <mxCell id="BNeq4px3UG7PVX7FRzOn-119" value="" style="line;html=1;strokeWidth=1;align=left;verticalAlign=middle;spacingTop=-1;spacingLeft=3;spacingRight=3;rotatable=0;labelPosition=right;points=[];portConstraint=eastwest;" parent="BNeq4px3UG7PVX7FRzOn-110" vertex="1">
          <mxGeometry y="232" width="210" height="8" as="geometry" />
        </mxCell>
        <mxCell id="nLLsvmatSyjKDxN5_Jng-11" value="" style="endArrow=block;endSize=16;endFill=0;html=1;rounded=0;" edge="1" parent="WIyWlLk6GJQsqaUBKTNV-1" target="BNeq4px3UG7PVX7FRzOn-12">
          <mxGeometry width="160" relative="1" as="geometry">
            <mxPoint x="-60" y="660" as="sourcePoint" />
            <mxPoint x="140" y="560" as="targetPoint" />
          </mxGeometry>
        </mxCell>
        <mxCell id="nLLsvmatSyjKDxN5_Jng-13" value="" style="endArrow=none;html=1;rounded=0;" edge="1" parent="WIyWlLk6GJQsqaUBKTNV-1" target="BNeq4px3UG7PVX7FRzOn-20">
          <mxGeometry width="50" height="50" relative="1" as="geometry">
            <mxPoint x="343" y="600" as="sourcePoint" />
            <mxPoint x="-50" y="560" as="targetPoint" />
          </mxGeometry>
        </mxCell>
        <mxCell id="nLLsvmatSyjKDxN5_Jng-14" value="" style="endArrow=none;html=1;rounded=0;" edge="1" parent="WIyWlLk6GJQsqaUBKTNV-1">
          <mxGeometry width="50" height="50" relative="1" as="geometry">
            <mxPoint x="-319.69" y="600" as="sourcePoint" />
            <mxPoint x="-319.99927835051545" y="660" as="targetPoint" />
          </mxGeometry>
        </mxCell>
        <mxCell id="nLLsvmatSyjKDxN5_Jng-15" value="" style="endArrow=none;html=1;rounded=0;entryX=0.455;entryY=-0.012;entryDx=0;entryDy=0;entryPerimeter=0;" edge="1" parent="WIyWlLk6GJQsqaUBKTNV-1" target="BNeq4px3UG7PVX7FRzOn-101">
          <mxGeometry width="50" height="50" relative="1" as="geometry">
            <mxPoint x="650" y="600" as="sourcePoint" />
            <mxPoint x="639.76" y="660" as="targetPoint" />
          </mxGeometry>
        </mxCell>
        <mxCell id="nLLsvmatSyjKDxN5_Jng-16" value="" style="endArrow=none;html=1;rounded=0;" edge="1" parent="WIyWlLk6GJQsqaUBKTNV-1">
          <mxGeometry width="50" height="50" relative="1" as="geometry">
            <mxPoint x="-320" y="600" as="sourcePoint" />
            <mxPoint x="650.9090909090909" y="600" as="targetPoint" />
          </mxGeometry>
        </mxCell>
        <mxCell id="nLLsvmatSyjKDxN5_Jng-18" value="" style="endArrow=block;endSize=16;endFill=0;html=1;rounded=0;exitX=0.527;exitY=0.003;exitDx=0;exitDy=0;exitPerimeter=0;entryX=0.307;entryY=1.081;entryDx=0;entryDy=0;entryPerimeter=0;" edge="1" parent="WIyWlLk6GJQsqaUBKTNV-1" source="BNeq4px3UG7PVX7FRzOn-54">
          <mxGeometry width="160" relative="1" as="geometry">
            <mxPoint x="-369.99999999999994" y="987.4400000000002" as="sourcePoint" />
            <mxPoint x="-369.46" y="927.996" as="targetPoint" />
          </mxGeometry>
        </mxCell>
        <mxCell id="nLLsvmatSyjKDxN5_Jng-19" value="" style="endArrow=none;html=1;rounded=0;" edge="1" parent="WIyWlLk6GJQsqaUBKTNV-1">
          <mxGeometry width="50" height="50" relative="1" as="geometry">
            <mxPoint x="-560" y="990" as="sourcePoint" />
            <mxPoint x="-560" y="960" as="targetPoint" />
          </mxGeometry>
        </mxCell>
        <mxCell id="nLLsvmatSyjKDxN5_Jng-20" value="" style="endArrow=none;html=1;rounded=0;" edge="1" parent="WIyWlLk6GJQsqaUBKTNV-1">
          <mxGeometry width="50" height="50" relative="1" as="geometry">
            <mxPoint x="-560" y="960" as="sourcePoint" />
            <mxPoint x="-370" y="960" as="targetPoint" />
          </mxGeometry>
        </mxCell>
        <mxCell id="nLLsvmatSyjKDxN5_Jng-21" value="" style="endArrow=classic;html=1;rounded=0;exitX=1;exitY=0.5;exitDx=0;exitDy=0;" edge="1" parent="WIyWlLk6GJQsqaUBKTNV-1" source="BNeq4px3UG7PVX7FRzOn-65" target="BNeq4px3UG7PVX7FRzOn-46">
          <mxGeometry width="50" height="50" relative="1" as="geometry">
            <mxPoint x="-280" y="760" as="sourcePoint" />
            <mxPoint x="-230" y="710" as="targetPoint" />
          </mxGeometry>
        </mxCell>
        <mxCell id="nLLsvmatSyjKDxN5_Jng-22" value="" style="endArrow=classic;html=1;rounded=0;exitX=0.335;exitY=-0.002;exitDx=0;exitDy=0;exitPerimeter=0;" edge="1" parent="WIyWlLk6GJQsqaUBKTNV-1" source="BNeq4px3UG7PVX7FRzOn-79" target="BNeq4px3UG7PVX7FRzOn-47">
          <mxGeometry width="50" height="50" relative="1" as="geometry">
            <mxPoint x="-280" y="760" as="sourcePoint" />
            <mxPoint x="-230" y="710" as="targetPoint" />
            <Array as="points">
              <mxPoint x="-160" y="760" />
            </Array>
          </mxGeometry>
        </mxCell>
        <mxCell id="nLLsvmatSyjKDxN5_Jng-23" value="" style="endArrow=classic;html=1;rounded=0;" edge="1" parent="WIyWlLk6GJQsqaUBKTNV-1" target="BNeq4px3UG7PVX7FRzOn-94">
          <mxGeometry width="50" height="50" relative="1" as="geometry">
            <mxPoint x="-160" y="760" as="sourcePoint" />
            <mxPoint x="-110" y="710" as="targetPoint" />
          </mxGeometry>
        </mxCell>
        <mxCell id="nLLsvmatSyjKDxN5_Jng-24" value="" style="endArrow=classic;html=1;rounded=0;entryX=1.001;entryY=0.391;entryDx=0;entryDy=0;entryPerimeter=0;" edge="1" parent="WIyWlLk6GJQsqaUBKTNV-1" target="BNeq4px3UG7PVX7FRzOn-93">
          <mxGeometry width="50" height="50" relative="1" as="geometry">
            <mxPoint x="190" y="980" as="sourcePoint" />
            <mxPoint x="180" y="670" as="targetPoint" />
            <Array as="points">
              <mxPoint x="190" y="720" />
            </Array>
          </mxGeometry>
        </mxCell>
        <mxCell id="nLLsvmatSyjKDxN5_Jng-25" value="" style="endArrow=classic;html=1;rounded=0;exitX=1.002;exitY=0.127;exitDx=0;exitDy=0;exitPerimeter=0;" edge="1" parent="WIyWlLk6GJQsqaUBKTNV-1" source="BNeq4px3UG7PVX7FRzOn-72" target="BNeq4px3UG7PVX7FRzOn-24">
          <mxGeometry width="50" height="50" relative="1" as="geometry">
            <mxPoint x="430" y="1000" as="sourcePoint" />
            <mxPoint x="480" y="800" as="targetPoint" />
            <Array as="points">
              <mxPoint x="480" y="1000" />
              <mxPoint x="480" y="800" />
            </Array>
          </mxGeometry>
        </mxCell>
        <mxCell id="nLLsvmatSyjKDxN5_Jng-26" value="" style="endArrow=classic;html=1;rounded=0;" edge="1" parent="WIyWlLk6GJQsqaUBKTNV-1">
          <mxGeometry width="50" height="50" relative="1" as="geometry">
            <mxPoint x="730" y="860" as="sourcePoint" />
            <mxPoint x="768" y="720" as="targetPoint" />
            <Array as="points">
              <mxPoint x="800" y="860" />
              <mxPoint x="800" y="720" />
            </Array>
          </mxGeometry>
        </mxCell>
        <mxCell id="nLLsvmatSyjKDxN5_Jng-30" value="" style="endArrow=none;html=1;edgeStyle=orthogonalEdgeStyle;rounded=0;" edge="1" parent="WIyWlLk6GJQsqaUBKTNV-1" source="BNeq4px3UG7PVX7FRzOn-32" target="BNeq4px3UG7PVX7FRzOn-12">
          <mxGeometry relative="1" as="geometry">
            <mxPoint x="-250" y="350" as="sourcePoint" />
            <mxPoint x="-90" y="350" as="targetPoint" />
          </mxGeometry>
        </mxCell>
        <mxCell id="nLLsvmatSyjKDxN5_Jng-31" value="1" style="edgeLabel;resizable=0;html=1;align=left;verticalAlign=bottom;" connectable="0" vertex="1" parent="nLLsvmatSyjKDxN5_Jng-30">
          <mxGeometry x="-1" relative="1" as="geometry" />
        </mxCell>
        <mxCell id="nLLsvmatSyjKDxN5_Jng-32" value="0..*" style="edgeLabel;resizable=0;html=1;align=right;verticalAlign=bottom;" connectable="0" vertex="1" parent="nLLsvmatSyjKDxN5_Jng-30">
          <mxGeometry x="1" relative="1" as="geometry">
            <mxPoint x="-15" as="offset" />
          </mxGeometry>
        </mxCell>
        <mxCell id="nLLsvmatSyjKDxN5_Jng-33" value="" style="endArrow=none;html=1;edgeStyle=orthogonalEdgeStyle;rounded=0;entryX=1;entryY=0.5;entryDx=0;entryDy=0;" edge="1" parent="WIyWlLk6GJQsqaUBKTNV-1" source="BNeq4px3UG7PVX7FRzOn-41">
          <mxGeometry relative="1" as="geometry">
            <mxPoint x="290" y="240" as="sourcePoint" />
            <mxPoint x="45" y="447" as="targetPoint" />
            <Array as="points">
              <mxPoint x="290" y="290" />
              <mxPoint x="290" y="440" />
              <mxPoint x="45" y="440" />
            </Array>
          </mxGeometry>
        </mxCell>
        <mxCell id="nLLsvmatSyjKDxN5_Jng-34" value="1" style="edgeLabel;resizable=0;html=1;align=left;verticalAlign=bottom;" connectable="0" vertex="1" parent="nLLsvmatSyjKDxN5_Jng-33">
          <mxGeometry x="-1" relative="1" as="geometry">
            <mxPoint x="-20" y="-5" as="offset" />
          </mxGeometry>
        </mxCell>
        <mxCell id="nLLsvmatSyjKDxN5_Jng-35" value="0..*" style="edgeLabel;resizable=0;html=1;align=right;verticalAlign=bottom;" connectable="0" vertex="1" parent="nLLsvmatSyjKDxN5_Jng-33">
          <mxGeometry x="1" relative="1" as="geometry">
            <mxPoint x="35" y="-7" as="offset" />
          </mxGeometry>
        </mxCell>
        <mxCell id="nLLsvmatSyjKDxN5_Jng-36" value="" style="endArrow=none;html=1;edgeStyle=orthogonalEdgeStyle;rounded=0;" edge="1" parent="WIyWlLk6GJQsqaUBKTNV-1" source="BNeq4px3UG7PVX7FRzOn-32" target="BNeq4px3UG7PVX7FRzOn-110">
          <mxGeometry relative="1" as="geometry">
            <mxPoint x="-420" y="220" as="sourcePoint" />
            <mxPoint x="-260" y="220" as="targetPoint" />
          </mxGeometry>
        </mxCell>
        <mxCell id="nLLsvmatSyjKDxN5_Jng-37" value="1" style="edgeLabel;resizable=0;html=1;align=left;verticalAlign=bottom;" connectable="0" vertex="1" parent="nLLsvmatSyjKDxN5_Jng-36">
          <mxGeometry x="-1" relative="1" as="geometry" />
        </mxCell>
        <mxCell id="nLLsvmatSyjKDxN5_Jng-38" value="0..*" style="edgeLabel;resizable=0;html=1;align=right;verticalAlign=bottom;" connectable="0" vertex="1" parent="nLLsvmatSyjKDxN5_Jng-36">
          <mxGeometry x="1" relative="1" as="geometry">
            <mxPoint x="-20" as="offset" />
          </mxGeometry>
        </mxCell>
        <mxCell id="nLLsvmatSyjKDxN5_Jng-39" value="" style="endArrow=none;html=1;edgeStyle=orthogonalEdgeStyle;rounded=0;" edge="1" parent="WIyWlLk6GJQsqaUBKTNV-1" source="BNeq4px3UG7PVX7FRzOn-41" target="BNeq4px3UG7PVX7FRzOn-110">
          <mxGeometry relative="1" as="geometry">
            <mxPoint x="300" y="200" as="sourcePoint" />
            <mxPoint x="55" y="407" as="targetPoint" />
            <Array as="points">
              <mxPoint x="290" y="290" />
              <mxPoint x="290" y="147" />
            </Array>
          </mxGeometry>
        </mxCell>
        <mxCell id="nLLsvmatSyjKDxN5_Jng-41" value="0..*" style="edgeLabel;resizable=0;html=1;align=right;verticalAlign=bottom;" connectable="0" vertex="1" parent="nLLsvmatSyjKDxN5_Jng-39">
          <mxGeometry x="1" relative="1" as="geometry">
            <mxPoint x="25" as="offset" />
          </mxGeometry>
        </mxCell>
      </root>
    </mxGraphModel>
  </diagram>
</mxfile>
